<svg width="33" height="16" viewBox="0 0 33 16" fill="none" xmlns="http://www.w3.org/2000/svg">
<path d="M8.61328 15.9863H0.00976562V15H8.61328V15.9863Z" fill="#FF0606"/>
<path d="M11.6309 9.20898V15H10.4297V0.78125H15.2734C16.7513 0.78125 17.9167 1.15885 18.7695 1.91406C19.6289 2.66927 20.0586 3.70768 20.0586 5.0293C20.0586 6.36393 19.6452 7.39583 18.8184 8.125C17.998 8.84766 16.8066 9.20898 15.2441 9.20898H11.6309ZM11.6309 8.19336H15.2734C16.4388 8.19336 17.3275 7.91667 17.9395 7.36328C18.5514 6.8099 18.8574 6.03841 18.8574 5.04883C18.8574 4.06576 18.5514 3.28451 17.9395 2.70508C17.334 2.11914 16.4714 1.81966 15.3516 1.80664H11.6309V8.19336ZM26.7676 6.79688L30.7715 0.78125H32.207L27.5 7.79297L32.3535 15H30.9082L26.7676 8.78906L22.6074 15H21.1816L26.0449 7.79297L21.3281 0.78125H22.7637L26.7676 6.79688Z" fill="black"/>
</svg>
